<?xml version="1.0" encoding="UTF-8" standalone="no"?>
<!-- Generated by IcoMoon.io -->

<svg
   xmlns:dc="http://purl.org/dc/elements/1.1/"
   xmlns:cc="http://creativecommons.org/ns#"
   xmlns:rdf="http://www.w3.org/1999/02/22-rdf-syntax-ns#"
   xmlns:svg="http://www.w3.org/2000/svg"
   xmlns="http://www.w3.org/2000/svg"
   xmlns:sodipodi="http://sodipodi.sourceforge.net/DTD/sodipodi-0.dtd"
   xmlns:inkscape="http://www.inkscape.org/namespaces/inkscape"
   version="1.1"
   width="32"
   height="32"
   viewBox="0 0 32 32"
   id="svg2"
   inkscape:version="0.48.4 r9939"
   sodipodi:docname="download3_2.svg">
  <metadata
     id="metadata10">
    <rdf:RDF>
      <cc:Work
         rdf:about="">
        <dc:format>image/svg+xml</dc:format>
        <dc:type
           rdf:resource="http://purl.org/dc/dcmitype/StillImage" />
        <dc:title></dc:title>
      </cc:Work>
    </rdf:RDF>
  </metadata>
  <defs
     id="defs8" />
  <sodipodi:namedview
     pagecolor="#ffffff"
     bordercolor="#666666"
     borderopacity="1"
     objecttolerance="10"
     gridtolerance="10"
     guidetolerance="10"
     inkscape:pageopacity="0"
     inkscape:pageshadow="2"
     inkscape:window-width="1468"
     inkscape:window-height="964"
     id="namedview6"
     showgrid="true"
     inkscape:zoom="16"
     inkscape:cx="16.271186"
     inkscape:cy="32.239821"
     inkscape:window-x="0"
     inkscape:window-y="28"
     inkscape:window-maximized="0"
     inkscape:current-layer="svg2">
    <inkscape:grid
       type="xygrid"
       id="grid3006" />
  </sodipodi:namedview>
  <path
     d="M23 14l-8 8-8-8h5v-12h6v12zM15 22h-15v8h30v-8h-15zM28 26h-4v-2h4v2z"
     fill="#444444"
     id="path4" />
  <g
     transform="matrix(1.4478976,0,0,1.0391086,-7.8215713,-0.88983411)"
     style="font-size:14.31193829000000051px;font-style:normal;font-weight:bold;line-height:125%;letter-spacing:0px;word-spacing:0px;fill:#444444;fill-opacity:1;stroke:none;font-family:Sans;-inkscape-font-specification:Sans Bold"
     id="text3025">
    <path
       d="m 21.628777,11.389392 4.591281,0 0,1.977675 -7.582253,0 0,-1.977675 3.808597,-3.3613485 c 0.34009,-0.3074774 0.591667,-0.6079719 0.754731,-0.9014844 0.163054,-0.2935 0.244583,-0.5986533 0.244589,-0.9154609 -6e-6,-0.4891699 -0.165394,-0.882841 -0.496166,-1.1810144 -0.326123,-0.2981568 -0.761724,-0.4472393 -1.306803,-0.4472481 -0.419298,8.8e-6 -0.878193,0.090856 -1.376685,0.2725418 -0.498498,0.177044 -1.031934,0.4425973 -1.60031,0.7966606 l 0,-2.2921464 c 0.605647,-0.2003196 1.204307,-0.3517316 1.795981,-0.4542363 0.591668,-0.1071426 1.171693,-0.1607191 1.740074,-0.1607298 1.248562,1.07e-5 2.217599,0.2748816 2.907113,0.8246137 0.694158,0.5497516 1.041241,1.3161291 1.041249,2.2991346 -8e-6,0.5683847 -0.146761,1.0994912 -0.440259,1.5933212 -0.293515,0.489183 -0.91081,1.146078 -1.851887,1.9706869 l -2.229252,1.95671"
       id="path3030"
       inkscape:connector-curvature="0"
       style="fill:#444444;fill-opacity:1" />
  </g>
</svg>
